<?xml version="1.0" standalone="no"?>
<!DOCTYPE svg PUBLIC "-//W3C//DTD SVG 20010904//EN"
 "http://www.w3.org/TR/2001/REC-SVG-20010904/DTD/svg10.dtd">
<svg version="1.0" xmlns="http://www.w3.org/2000/svg"
 width="608.000000pt" height="608.000000pt" viewBox="0 0 608.000000 608.000000"
 preserveAspectRatio="xMidYMid meet">

<g transform="translate(0.000000,608.000000) scale(0.100000,-0.100000)"
fill="#000000" stroke="none">
<path d="M4090 5495 l0 -45 -90 0 -90 0 0 -45 0 -45 -45 0 -45 0 0 -45 0 -45
-45 0 -45 0 0 -90 0 -90 -45 0 -45 0 0 -40 0 -40 -45 0 -45 0 0 -45 0 -45 -45
0 -45 0 0 -45 0 -45 -85 0 -85 0 0 -45 0 -45 -45 0 -45 0 0 -90 0 -90 -45 0
-45 0 0 -90 0 -90 -90 0 -90 0 0 -90 0 -90 90 0 90 0 0 -90 0 -90 45 0 45 0 0
-90 0 -90 45 0 45 0 0 -45 0 -45 85 0 85 0 0 -45 0 -45 45 0 45 0 0 -45 0 -45
45 0 45 0 0 -90 0 -90 45 0 45 0 0 -45 0 -45 45 0 45 0 0 -45 0 -45 45 0 45 0
0 -45 0 -45 45 0 45 0 0 -40 0 -40 175 0 175 0 0 40 0 40 90 0 90 0 0 90 0 90
45 0 45 0 0 45 0 45 45 0 45 0 0 45 0 45 90 0 90 0 0 90 0 90 40 0 40 0 0 45
0 45 45 0 45 0 0 45 0 45 45 0 45 0 0 45 0 45 90 0 90 0 0 90 0 90 45 0 45 0
0 45 0 45 45 0 45 0 0 45 0 45 -45 0 -45 0 0 45 0 45 -45 0 -45 0 0 90 0 90
-45 0 -45 0 0 45 0 45 -45 0 -45 0 0 45 0 45 -45 0 -45 0 0 45 0 45 -45 0 -45
0 0 90 0 90 -40 0 -40 0 0 40 0 40 -90 0 -90 0 0 45 0 45 -45 0 -45 0 0 90 0
90 -45 0 -45 0 0 45 0 45 -45 0 -45 0 0 45 0 45 -175 0 -175 0 0 -45z m260
-180 l0 -45 45 0 45 0 0 -45 0 -45 45 0 45 0 0 -45 0 -45 45 0 45 0 0 -85 0
-85 45 0 45 0 0 -45 0 -45 90 0 90 0 0 -45 0 -45 40 0 40 0 0 -90 0 -90 45 0
45 0 0 -45 0 -45 45 0 45 0 0 -90 0 -90 45 0 45 0 0 -45 0 -45 -45 0 -45 0 0
-90 0 -90 -90 0 -90 0 0 -90 0 -90 -40 0 -40 0 0 -45 0 -45 -90 0 -90 0 0 -45
0 -45 -45 0 -45 0 0 -45 0 -45 -45 0 -45 0 0 -45 0 -45 -45 0 -45 0 0 -45 0
-45 -45 0 -45 0 0 -45 0 -45 -45 0 -45 0 0 -45 0 -45 -85 0 -85 0 0 45 0 45
-45 0 -45 0 0 45 0 45 -45 0 -45 0 0 45 0 45 -45 0 -45 0 0 45 0 45 -45 0 -45
0 0 90 0 90 -45 0 -45 0 0 45 0 45 -45 0 -45 0 0 45 0 45 -45 0 -45 0 0 45 0
45 -85 0 -85 0 0 45 0 45 -45 0 -45 0 0 135 0 135 45 0 45 0 0 45 0 45 85 0
85 0 0 45 0 45 45 0 45 0 0 45 0 45 45 0 45 0 0 45 0 45 45 0 45 0 0 90 0 90
45 0 45 0 0 45 0 45 45 0 45 0 0 40 0 40 45 0 45 0 0 45 0 45 45 0 45 0 0 45
0 45 85 0 85 0 0 45 0 45 45 0 45 0 0 -45z"/>
<path d="M800 5225 l0 -45 -45 0 -45 0 0 -45 0 -45 -45 0 -45 0 0 -805 0 -805
45 0 45 0 0 -90 0 -90 90 0 90 0 0 -45 0 -45 710 0 710 0 0 45 0 45 90 0 90 0
0 985 0 985 -845 0 -845 0 0 -45z m1510 -940 l0 -805 -710 0 -710 0 0 45 0 45
-45 0 -45 0 0 720 0 720 45 0 45 0 0 40 0 40 710 0 710 0 0 -805z"/>
<path d="M800 2635 l0 -45 -45 0 -45 0 0 -45 0 -45 -45 0 -45 0 0 -760 0 -760
45 0 45 0 0 -90 0 -90 45 0 45 0 0 -45 0 -45 755 0 755 0 0 45 0 45 135 0 135
0 0 45 0 45 -45 0 -45 0 0 85 0 85 45 0 45 0 0 180 0 180 -45 0 -45 0 0 315 0
315 45 0 45 0 0 45 0 45 -45 0 -45 0 0 225 0 225 -90 0 -90 0 0 45 0 45 -755
0 -755 0 0 -45z m1510 -855 l0 -630 45 0 45 0 0 -45 0 -45 -45 0 -45 0 0 -85
0 -85 -710 0 -710 0 0 85 0 85 -45 0 -45 0 0 675 0 675 755 0 755 0 0 -630z"/>
<path d="M3640 2635 l0 -45 -175 0 -175 0 0 -135 0 -135 -45 0 -45 0 0 -90 0
-90 45 0 45 0 0 -45 0 -45 -45 0 -45 0 0 -495 0 -495 45 0 45 0 0 -130 0 -130
130 0 130 0 0 -45 0 -45 755 0 755 0 0 45 0 45 45 0 45 0 0 90 0 90 45 0 45 0
0 85 0 85 -45 0 -45 0 0 45 0 45 45 0 45 0 0 45 0 45 -45 0 -45 0 0 135 0 135
45 0 45 0 0 45 0 45 -45 0 -45 0 0 45 0 45 45 0 45 0 0 180 0 180 -45 0 -45 0
0 135 0 135 -45 0 -45 0 0 45 0 45 45 0 45 0 0 45 0 45 -45 0 -45 0 0 45 0 45
-710 0 -710 0 0 -45z m1330 -360 l0 -135 45 0 45 0 0 -180 0 -180 -45 0 -45 0
0 -45 0 -45 45 0 45 0 0 -45 0 -45 -45 0 -45 0 0 -135 0 -135 45 0 45 0 0 -45
0 -45 -45 0 -45 0 0 -45 0 -45 45 0 45 0 0 -45 0 -45 -45 0 -45 0 0 -85 0 -85
-665 0 -665 0 0 45 0 45 -45 0 -45 0 0 715 0 715 710 0 710 0 0 -135z"/>
</g>
</svg>
