<?xml version="1.0" standalone="no"?>
<!DOCTYPE svg PUBLIC "-//W3C//DTD SVG 20010904//EN"
 "http://www.w3.org/TR/2001/REC-SVG-20010904/DTD/svg10.dtd">
<svg version="1.0" xmlns="http://www.w3.org/2000/svg"
 width="608.000000pt" height="608.000000pt" viewBox="0 0 608.000000 608.000000"
 preserveAspectRatio="xMidYMid meet">

<g transform="translate(0.000000,608.000000) scale(0.100000,-0.100000)"
fill="#000000" stroke="none">
<path d="M2510 5135 l0 -45 -185 0 -185 0 0 -45 0 -45 -95 0 -95 0 0 -45 0
-45 -90 0 -90 0 0 -45 0 -45 -95 0 -95 0 0 -45 0 -45 -45 0 -45 0 0 -45 0 -45
-95 0 -95 0 0 -40 0 -40 -45 0 -45 0 0 -45 0 -45 -45 0 -45 0 0 -45 0 -45 -50
0 -50 0 0 -45 0 -45 -45 0 -45 0 0 -90 0 -90 -45 0 -45 0 0 -45 0 -45 -50 0
-50 0 0 -90 0 -90 -45 0 -45 0 0 -135 0 -135 -45 0 -45 0 0 -135 0 -135 -45 0
-45 0 0 -360 0 -360 45 0 45 0 0 -180 0 -180 45 0 45 0 0 -315 0 -315 -45 0
-45 0 0 -220 0 -220 -45 0 -45 0 0 -135 0 -135 185 0 185 0 0 45 0 45 185 0
185 0 0 45 0 45 235 0 235 0 0 -45 0 -45 90 0 90 0 0 -45 0 -45 95 0 95 0 0
-45 0 -45 185 0 185 0 0 -45 0 -45 280 0 280 0 0 -45 0 -45 45 0 45 0 0 45 0
45 325 0 325 0 0 45 0 45 190 0 190 0 0 45 0 45 90 0 90 0 0 45 0 45 45 0 45
0 0 45 0 45 95 0 95 0 0 45 0 45 95 0 95 0 0 45 0 45 45 0 45 0 0 45 0 45 45
0 45 0 0 45 0 45 50 0 50 0 0 45 0 45 45 0 45 0 0 40 0 40 45 0 45 0 0 90 0
90 50 0 50 0 0 45 0 45 45 0 45 0 0 90 0 90 45 0 45 0 0 135 0 135 45 0 45 0
0 585 0 585 -45 0 -45 0 0 135 0 135 -45 0 -45 0 0 90 0 90 -45 0 -45 0 0 90
0 90 -50 0 -50 0 0 45 0 45 -45 0 -45 0 0 45 0 45 -45 0 -45 0 0 45 0 45 -50
0 -50 0 0 45 0 45 -45 0 -45 0 0 45 0 45 -45 0 -45 0 0 40 0 40 -50 0 -50 0 0
45 0 45 -45 0 -45 0 0 45 0 45 -95 0 -95 0 0 45 0 45 -90 0 -90 0 0 45 0 45
-95 0 -95 0 0 45 0 45 -185 0 -185 0 0 45 0 45 -560 0 -560 0 0 -45z m930
-180 l0 -45 190 0 190 0 0 -45 0 -45 140 0 140 0 0 -45 0 -45 90 0 90 0 0 -45
0 -45 95 0 95 0 0 -40 0 -40 45 0 45 0 0 -45 0 -45 45 0 45 0 0 -45 0 -45 50
0 50 0 0 -45 0 -45 45 0 45 0 0 -45 0 -45 45 0 45 0 0 -45 0 -45 50 0 50 0 0
-45 0 -45 45 0 45 0 0 -90 0 -90 45 0 45 0 0 -90 0 -90 50 0 50 0 0 -135 0
-135 45 0 45 0 0 -495 0 -495 -45 0 -45 0 0 -135 0 -135 -50 0 -50 0 0 -90 0
-90 -45 0 -45 0 0 -45 0 -45 -45 0 -45 0 0 -90 0 -90 -50 0 -50 0 0 -45 0 -45
-45 0 -45 0 0 -40 0 -40 -45 0 -45 0 0 -45 0 -45 -95 0 -95 0 0 -45 0 -45 -45
0 -45 0 0 -45 0 -45 -95 0 -95 0 0 -45 0 -45 -45 0 -45 0 0 -45 0 -45 -140 0
-140 0 0 -45 0 -45 -140 0 -140 0 0 -45 0 -45 -605 0 -605 0 0 45 0 45 -140 0
-140 0 0 45 0 45 -95 0 -95 0 0 45 0 45 -90 0 -90 0 0 45 0 45 -95 0 -95 0 0
45 0 45 -45 0 -45 0 0 -45 0 -45 -185 0 -185 0 0 -45 0 -45 -190 0 -190 0 0
180 0 180 50 0 50 0 0 220 0 220 45 0 45 0 0 45 0 45 -45 0 -45 0 0 135 0 135
-50 0 -50 0 0 180 0 180 -45 0 -45 0 0 315 0 315 45 0 45 0 0 135 0 135 50 0
50 0 0 90 0 90 45 0 45 0 0 90 0 90 45 0 45 0 0 90 0 90 50 0 50 0 0 45 0 45
45 0 45 0 0 45 0 45 45 0 45 0 0 45 0 45 50 0 50 0 0 45 0 45 90 0 90 0 0 45
0 45 50 0 50 0 0 40 0 40 45 0 45 0 0 45 0 45 140 0 140 0 0 45 0 45 90 0 90
0 0 45 0 45 190 0 190 0 0 45 0 45 415 0 415 0 0 -45z"/>
<path d="M1770 3120 l0 -90 1165 0 1165 0 0 90 0 90 -1165 0 -1165 0 0 -90z"/>
<path d="M1770 2490 l0 -90 695 0 695 0 0 90 0 90 -695 0 -695 0 0 -90z"/>
</g>
</svg>
