<?xml version="1.0" standalone="no"?>
<!DOCTYPE svg PUBLIC "-//W3C//DTD SVG 20010904//EN"
 "http://www.w3.org/TR/2001/REC-SVG-20010904/DTD/svg10.dtd">
<svg version="1.0" xmlns="http://www.w3.org/2000/svg"
 width="608.000000pt" height="608.000000pt" viewBox="0 0 608.000000 608.000000"
 preserveAspectRatio="xMidYMid meet">

<g transform="translate(0.000000,608.000000) scale(0.100000,-0.100000)"
fill="#000000" stroke="none">
<path d="M2680 5335 l0 -45 -215 0 -215 0 0 -40 0 -40 -85 0 -85 0 0 -45 0
-45 -85 0 -85 0 0 -40 0 -40 -85 0 -85 0 0 -45 0 -45 -40 0 -40 0 0 -40 0 -40
-45 0 -45 0 0 -45 0 -45 -45 0 -45 0 0 -40 0 -40 -40 0 -40 0 0 -45 0 -45 -45
0 -45 0 0 -45 0 -45 -40 0 -40 0 0 -85 0 -85 -45 0 -45 0 0 -40 0 -40 -40 0
-40 0 0 -85 0 -85 -45 0 -45 0 0 -130 0 -130 -40 0 -40 0 0 -255 0 -255 -45 0
-45 0 0 -130 0 -130 45 0 45 0 0 -255 0 -255 40 0 40 0 0 -130 0 -130 45 0 45
0 0 -85 0 -85 40 0 40 0 0 -85 0 -85 45 0 45 0 0 -40 0 -40 40 0 40 0 0 -45 0
-45 45 0 45 0 0 -40 0 -40 40 0 40 0 0 -45 0 -45 45 0 45 0 0 -40 0 -40 45 0
45 0 0 -45 0 -45 40 0 40 0 0 -45 0 -45 85 0 85 0 0 -40 0 -40 85 0 85 0 0
-45 0 -45 130 0 130 0 0 -40 0 -40 170 0 170 0 0 -45 0 -45 300 0 300 0 0 45
0 45 170 0 170 0 0 40 0 40 130 0 130 0 0 45 0 45 85 0 85 0 0 40 0 40 85 0
85 0 0 45 0 45 45 0 45 0 0 45 0 45 40 0 40 0 0 40 0 40 45 0 45 0 0 45 0 45
40 0 40 0 0 40 0 40 45 0 45 0 0 45 0 45 40 0 40 0 0 40 0 40 45 0 45 0 0 85
0 85 40 0 40 0 0 85 0 85 45 0 45 0 0 130 0 130 45 0 45 0 0 255 0 255 40 0
40 0 0 130 0 130 -40 0 -40 0 0 255 0 255 -45 0 -45 0 0 130 0 130 -45 0 -45
0 0 85 0 85 -40 0 -40 0 0 40 0 40 -45 0 -45 0 0 85 0 85 -40 0 -40 0 0 45 0
45 -45 0 -45 0 0 45 0 45 -40 0 -40 0 0 40 0 40 -45 0 -45 0 0 45 0 45 -40 0
-40 0 0 40 0 40 -45 0 -45 0 0 45 0 45 -85 0 -85 0 0 40 0 40 -85 0 -85 0 0
45 0 45 -85 0 -85 0 0 40 0 40 -215 0 -215 0 0 45 0 45 -300 0 -300 0 0 -45z
m860 -255 l0 -40 125 0 125 0 0 -45 0 -45 85 0 85 0 0 -40 0 -40 45 0 45 0 0
-45 0 -45 85 0 85 0 0 -40 0 -40 45 0 45 0 0 -45 0 -45 40 0 40 0 0 -45 0 -45
45 0 45 0 0 -40 0 -40 40 0 40 0 0 -45 0 -45 45 0 45 0 0 -85 0 -85 40 0 40 0
0 -85 0 -85 45 0 45 0 0 -125 0 -125 40 0 40 0 0 -555 0 -555 -40 0 -40 0 0
-130 0 -130 -45 0 -45 0 0 -85 0 -85 -40 0 -40 0 0 -45 0 -45 -45 0 -45 0 0
-85 0 -85 -40 0 -40 0 0 -40 0 -40 -45 0 -45 0 0 -45 0 -45 -40 0 -40 0 0 -40
0 -40 -45 0 -45 0 0 -45 0 -45 -45 0 -45 0 0 -40 0 -40 -85 0 -85 0 0 -45 0
-45 -85 0 -85 0 0 -45 0 -45 -85 0 -85 0 0 -40 0 -40 -255 0 -255 0 0 -45 0
-45 -130 0 -130 0 0 45 0 45 -255 0 -255 0 0 40 0 40 -85 0 -85 0 0 45 0 45
-85 0 -85 0 0 45 0 45 -85 0 -85 0 0 40 0 40 -45 0 -45 0 0 45 0 45 -40 0 -40
0 0 40 0 40 -45 0 -45 0 0 45 0 45 -45 0 -45 0 0 40 0 40 -40 0 -40 0 0 85 0
85 -45 0 -45 0 0 45 0 45 -40 0 -40 0 0 85 0 85 -45 0 -45 0 0 130 0 130 -40
0 -40 0 0 255 0 255 -45 0 -45 0 0 40 0 40 45 0 45 0 0 260 0 260 40 0 40 0 0
125 0 125 45 0 45 0 0 85 0 85 40 0 40 0 0 85 0 85 45 0 45 0 0 45 0 45 40 0
40 0 0 40 0 40 45 0 45 0 0 45 0 45 45 0 45 0 0 45 0 45 40 0 40 0 0 40 0 40
85 0 85 0 0 45 0 45 45 0 45 0 0 40 0 40 85 0 85 0 0 45 0 45 125 0 125 0 0
40 0 40 560 0 560 0 0 -40z"/>
<path d="M2940 4480 l0 -40 -45 0 -45 0 0 -640 0 -640 -85 0 -85 0 0 -45 0
-45 -40 0 -40 0 0 -40 0 -40 -90 0 -90 0 0 -45 0 -45 -40 0 -40 0 0 -85 0 -85
85 0 85 0 0 45 0 45 85 0 85 0 0 40 0 40 45 0 45 0 0 45 0 45 85 0 85 0 0 40
0 40 40 0 40 0 0 45 0 45 45 0 45 0 0 640 0 640 -45 0 -45 0 0 40 0 40 -40 0
-40 0 0 -40z"/>
</g>
</svg>
