<?xml version="1.0" standalone="no"?>
<!DOCTYPE svg PUBLIC "-//W3C//DTD SVG 20010904//EN"
 "http://www.w3.org/TR/2001/REC-SVG-20010904/DTD/svg10.dtd">
<svg version="1.0" xmlns="http://www.w3.org/2000/svg"
 width="608.000000pt" height="608.000000pt" viewBox="0 0 608.000000 608.000000"
 preserveAspectRatio="xMidYMid meet">

<g transform="translate(0.000000,608.000000) scale(0.100000,-0.100000)"
fill="#000000" stroke="none">
<path d="M3100 5540 l0 -50 -185 0 -185 0 0 -50 0 -50 -95 0 -95 0 0 -50 0
-50 -45 0 -45 0 0 -95 0 -95 -50 0 -50 0 0 -50 0 -50 -45 0 -45 0 0 -195 0
-195 -50 0 -50 0 0 -295 0 -295 50 0 50 0 0 -195 0 -195 45 0 45 0 0 -100 0
-100 50 0 50 0 0 -50 0 -50 45 0 45 0 0 -50 0 -50 45 0 45 0 0 -50 0 -50 145
0 145 0 0 -45 0 -45 280 0 280 0 0 45 0 45 95 0 95 0 0 50 0 50 45 0 45 0 0
50 0 50 50 0 50 0 0 50 0 50 45 0 45 0 0 100 0 100 45 0 45 0 0 145 0 145 50
0 50 0 0 395 0 395 -50 0 -50 0 0 145 0 145 -45 0 -45 0 0 100 0 100 -45 0
-45 0 0 45 0 45 -50 0 -50 0 0 50 0 50 -95 0 -95 0 0 50 0 50 -185 0 -185 0 0
50 0 50 -50 0 -50 0 0 -50z m470 -295 l0 -45 50 0 50 0 0 -50 0 -50 45 0 45 0
0 -100 0 -100 50 0 50 0 0 -145 0 -145 45 0 45 0 0 -295 0 -295 -45 0 -45 0 0
-150 0 -150 -50 0 -50 0 0 -95 0 -95 -45 0 -45 0 0 -50 0 -50 -50 0 -50 0 0
-50 0 -50 -90 0 -90 0 0 -50 0 -50 -235 0 -235 0 0 50 0 50 -95 0 -95 0 0 50
0 50 -50 0 -50 0 0 50 0 50 -45 0 -45 0 0 95 0 95 -45 0 -45 0 0 245 0 245
-50 0 -50 0 0 150 0 150 50 0 50 0 0 195 0 195 45 0 45 0 0 50 0 50 45 0 45 0
0 100 0 100 95 0 95 0 0 45 0 45 375 0 375 0 0 -45z"/>
<path d="M2730 2590 l0 -50 -190 0 -190 0 0 -45 0 -45 -95 0 -95 0 0 -50 0
-50 -140 0 -140 0 0 -50 0 -50 -45 0 -45 0 0 -50 0 -50 -50 0 -50 0 0 -50 0
-50 -45 0 -45 0 0 -45 0 -45 -50 0 -50 0 0 -100 0 -100 -45 0 -45 0 0 -50 0
-50 -95 0 -95 0 0 -100 0 -100 -45 0 -45 0 0 -390 0 -390 95 0 95 0 0 -50 0
-50 45 0 45 0 0 -50 0 -50 1790 0 1790 0 0 50 0 50 90 0 90 0 0 100 0 100 50
0 50 0 0 245 0 245 -50 0 -50 0 0 95 0 95 -45 0 -45 0 0 100 0 100 -45 0 -45
0 0 100 0 100 -50 0 -50 0 0 50 0 50 -45 0 -45 0 0 45 0 45 -50 0 -50 0 0 50
0 50 -45 0 -45 0 0 50 0 50 -95 0 -95 0 0 50 0 50 -95 0 -95 0 0 50 0 50 -140
0 -140 0 0 45 0 45 -235 0 -235 0 0 50 0 50 -375 0 -375 0 0 -50z m660 -190
l0 -50 280 0 280 0 0 -50 0 -50 95 0 95 0 0 -50 0 -50 95 0 95 0 0 -50 0 -50
45 0 45 0 0 -45 0 -45 95 0 95 0 0 -50 0 -50 45 0 45 0 0 -50 0 -50 50 0 50 0
0 -100 0 -100 45 0 45 0 0 -95 0 -95 50 0 50 0 0 -100 0 -100 45 0 45 0 0 -50
0 -50 45 0 45 0 0 -50 0 -50 -45 0 -45 0 0 -45 0 -45 -45 0 -45 0 0 -50 0 -50
-1790 0 -1790 0 0 295 0 295 45 0 45 0 0 95 0 95 50 0 50 0 0 50 0 50 45 0 45
0 0 150 0 150 95 0 95 0 0 45 0 45 95 0 95 0 0 50 0 50 45 0 45 0 0 50 0 50
145 0 145 0 0 50 0 50 185 0 185 0 0 50 0 50 285 0 285 0 0 -50z"/>
</g>
</svg>
