<?xml version="1.0" standalone="no"?>
<!DOCTYPE svg PUBLIC "-//W3C//DTD SVG 20010904//EN"
 "http://www.w3.org/TR/2001/REC-SVG-20010904/DTD/svg10.dtd">
<svg version="1.0" xmlns="http://www.w3.org/2000/svg"
 width="608.000000pt" height="608.000000pt" viewBox="0 0 608.000000 608.000000"
 preserveAspectRatio="xMidYMid meet">

<g transform="translate(0.000000,608.000000) scale(0.100000,-0.100000)"
fill="#000000" stroke="none">
<path d="M800 3035 l0 -2315 1790 0 1790 0 0 45 0 45 200 0 200 0 0 45 0 45
50 0 50 0 0 45 0 45 95 0 95 0 0 90 0 90 50 0 50 0 0 90 0 90 50 0 50 0 0
1685 0 1685 -50 0 -50 0 0 90 0 90 -50 0 -50 0 0 90 0 90 -95 0 -95 0 0 45 0
45 -50 0 -50 0 0 45 0 45 -150 0 -150 0 0 45 0 45 -1840 0 -1840 0 0 -2315z
m3880 2000 l0 -45 50 0 50 0 0 -45 0 -45 50 0 50 0 0 -45 0 -45 50 0 50 0 0
-90 0 -90 45 0 45 0 0 -1595 0 -1595 -45 0 -45 0 0 -90 0 -90 -50 0 -50 0 0
-45 0 -45 -50 0 -50 0 0 -45 0 -45 -50 0 -50 0 0 -45 0 -45 -150 0 -150 0 0
-45 0 -45 -1645 0 -1645 0 0 45 0 45 -45 0 -45 0 0 2045 0 2045 1840 0 1840 0
0 -45z"/>
<path d="M2790 4125 l0 -45 -50 0 -50 0 0 -45 0 -45 -50 0 -50 0 0 -45 0 -45
-50 0 -50 0 0 -90 0 -90 -50 0 -50 0 0 -95 0 -95 50 0 50 0 0 -135 0 -135 50
0 50 0 0 -45 0 -45 -50 0 -50 0 0 -45 0 -45 -100 0 -100 0 0 -90 0 -90 -50 0
-50 0 0 -45 0 -45 -50 0 -50 0 0 -90 0 -90 -50 0 -50 0 0 -95 0 -95 -50 0 -50
0 0 -90 0 -90 50 0 50 0 0 -45 0 -45 50 0 50 0 0 -45 0 -45 945 0 945 0 0 45
0 45 50 0 50 0 0 45 0 45 50 0 50 0 0 90 0 90 -50 0 -50 0 0 95 0 95 -50 0
-50 0 0 90 0 90 -50 0 -50 0 0 45 0 45 -50 0 -50 0 0 90 0 90 -100 0 -100 0 0
45 0 45 -50 0 -50 0 0 45 0 45 50 0 50 0 0 135 0 135 50 0 50 0 0 95 0 95 -50
0 -50 0 0 90 0 90 -50 0 -50 0 0 45 0 45 -50 0 -50 0 0 45 0 45 -50 0 -50 0 0
45 0 45 -245 0 -245 0 0 -45z m390 -180 l0 -45 100 0 100 0 0 -275 0 -275 -50
0 -50 0 0 -45 0 -45 -245 0 -245 0 0 45 0 45 -50 0 -50 0 0 275 0 275 100 0
100 0 0 45 0 45 145 0 145 0 0 -45z m300 -1000 l0 -45 50 0 50 0 0 -45 0 -45
50 0 50 0 0 -45 0 -45 50 0 50 0 0 -45 0 -45 50 0 50 0 0 -140 0 -140 -845 0
-845 0 0 140 0 140 50 0 50 0 0 45 0 45 50 0 50 0 0 45 0 45 50 0 50 0 0 45 0
45 50 0 50 0 0 45 0 45 445 0 445 0 0 -45z"/>
</g>
</svg>
